<svg width="100%" height="100%" viewBox="0 0 156 34" fill="#cbd5e1" xmlns="http://www.w3.org/2000/svg"><path d="M50.3483 3.73926H46.0298V30.2609H58.4604V26.3586H50.3483V3.73926Z" fill="white"></path><path d="M73.7072 14.9922C73.1563 14.1082 72.374 13.4138 71.36 12.9083C70.3462 12.4033 69.3257 12.1504 68.2994 12.1504C66.9718 12.1504 65.7578 12.3967 64.6565 12.8892C63.5545 13.3817 62.6097 14.0579 61.821 14.9164C61.0325 15.7753 60.4188 16.7668 59.9809 17.8904C59.5425 19.0147 59.3237 20.1959 59.3237 21.4331C59.3237 22.6966 59.5425 23.8832 59.9809 24.9944C60.4187 26.1063 61.0323 27.0913 61.821 27.9498C62.6097 28.8087 63.5547 29.4842 64.6565 29.9766C65.7578 30.4691 66.9718 30.7154 68.2994 30.7154C69.3257 30.7154 70.3462 30.4629 71.36 29.9577C72.374 29.4528 73.1563 28.7582 73.7072 27.8738V30.2607H77.8008V12.6048H73.7072V14.9922ZM73.3317 23.5928C73.0813 24.2749 72.7307 24.8685 72.2804 25.3736C71.8296 25.8791 71.2849 26.2831 70.6467 26.5862C70.0082 26.8893 69.3003 27.0408 68.5246 27.0408C67.7483 27.0408 67.0473 26.8893 66.4215 26.5862C65.7956 26.2831 65.2574 25.8791 64.8068 25.3736C64.356 24.8685 64.0115 24.2749 63.774 23.5928C63.5356 22.9107 63.4173 22.1908 63.4173 21.4333C63.4173 20.6754 63.5356 19.9555 63.774 19.2735C64.0115 18.5915 64.356 17.9983 64.8068 17.4928C65.2574 16.9879 65.7954 16.5834 66.4215 16.2803C67.0473 15.9771 67.7483 15.8257 68.5246 15.8257C69.3005 15.8257 70.0082 15.9771 70.6467 16.2803C71.2849 16.5834 71.8296 16.9877 72.2804 17.4928C72.731 17.9983 73.0813 18.5915 73.3317 19.2735C73.5817 19.9555 73.7072 20.6754 73.7072 21.4333C73.7072 22.1908 73.5817 22.9107 73.3317 23.5928Z" fill="white"></path><path d="M106.981 14.9922C106.43 14.1082 105.647 13.4138 104.633 12.9083C103.62 12.4033 102.599 12.1504 101.573 12.1504C100.245 12.1504 99.0313 12.3967 97.9299 12.8892C96.8279 13.3817 95.8831 14.0579 95.0945 14.9164C94.3059 15.7753 93.6923 16.7668 93.2544 17.8904C92.8159 19.0147 92.5972 20.1959 92.5972 21.4331C92.5972 22.6966 92.8159 23.8832 93.2544 24.9944C93.6921 26.1063 94.3057 27.0913 95.0945 27.9498C95.8831 28.8087 96.8281 29.4842 97.9299 29.9766C99.0313 30.4691 100.245 30.7154 101.573 30.7154C102.599 30.7154 103.62 30.4629 104.633 29.9577C105.647 29.4528 106.43 28.7582 106.981 27.8738V30.2607H111.074V12.6048H106.981V14.9922ZM106.605 23.5928C106.355 24.2749 106.004 24.8685 105.554 25.3736C105.103 25.8791 104.558 26.2831 103.92 26.5862C103.282 26.8893 102.574 27.0408 101.798 27.0408C101.022 27.0408 100.321 26.8893 99.6951 26.5862C99.0692 26.2831 98.531 25.8791 98.0804 25.3736C97.6296 24.8685 97.2852 24.2749 97.0476 23.5928C96.8092 22.9107 96.6909 22.1908 96.6909 21.4333C96.6909 20.6754 96.8092 19.9555 97.0476 19.2735C97.2852 18.5915 97.6296 17.9983 98.0804 17.4928C98.531 16.9879 99.069 16.5834 99.6951 16.2803C100.321 15.9771 101.022 15.8257 101.798 15.8257C102.574 15.8257 103.282 15.9771 103.92 16.2803C104.558 16.5834 105.103 16.9877 105.554 17.4928C106.005 17.9983 106.355 18.5915 106.605 19.2735C106.855 19.9555 106.981 20.6754 106.981 21.4333C106.981 22.1908 106.855 22.9107 106.605 23.5928Z" fill="white"></path><path d="M155.979 3.73926H151.886V30.2609H155.979V3.73926Z" fill="white"></path><path d="M81.0303 30.2602H85.1234V16.6679H92.1464V12.6045H81.0303V30.2602Z" fill="white"></path><path d="M127.486 12.6045L122.341 26.1248L117.196 12.6045H113.05L119.769 30.2602H124.913L131.631 12.6045H127.486Z" fill="white"></path><path d="M140.559 12.1504C135.547 12.1504 131.579 16.3063 131.579 21.4325C131.579 27.0993 135.419 30.7147 141.084 30.7147C144.254 30.7147 146.278 29.4916 148.751 26.8283L145.986 24.6696C145.984 24.6718 143.899 27.4345 140.784 27.4345C137.164 27.4345 135.641 24.4902 135.641 22.9669H149.221C149.934 17.134 146.133 12.1504 140.559 12.1504ZM135.652 19.8981C135.683 19.5583 136.154 15.4305 140.527 15.4305C144.9 15.4305 145.43 19.5577 145.461 19.8981H135.652Z" fill="white"></path><g clip-path="url(#clip0_23004_428)"><path fill-rule="evenodd" clip-rule="evenodd" d="M31.014 7.98297C31.0255 8.02553 31.0314 8.06942 31.0315 8.1135V14.9661C31.0315 15.054 31.0083 15.1404 30.9642 15.2165C30.9201 15.2926 30.8567 15.3558 30.7804 15.3995L25.0289 18.7109V25.2743C25.0289 25.4529 24.934 25.6178 24.7791 25.7077L12.7734 32.619C12.7459 32.6346 12.7159 32.6446 12.6859 32.6552C12.6747 32.659 12.6641 32.6659 12.6522 32.669C12.5683 32.6911 12.48 32.6911 12.3961 32.669C12.3824 32.6652 12.3699 32.6577 12.3568 32.6527C12.3293 32.6427 12.3006 32.634 12.2743 32.619L0.271089 25.7077C0.194836 25.6639 0.131477 25.6008 0.0873989 25.5247C0.0433205 25.4486 0.0200799 25.3622 0.0200195 25.2743L0.0200195 4.71657C0.0200195 4.6716 0.026265 4.62788 0.037507 4.58541C0.0412543 4.57105 0.049998 4.55793 0.0549944 4.54357C0.0643627 4.51734 0.0731064 4.49048 0.0868465 4.46612C0.0962148 4.44989 0.109955 4.43677 0.121197 4.42178C0.135561 4.40179 0.148677 4.38118 0.16554 4.3637C0.179905 4.34933 0.198641 4.33872 0.214879 4.32622C0.232991 4.31123 0.24923 4.295 0.26984 4.28313L6.2724 0.827489C6.3484 0.783758 6.43454 0.760742 6.52222 0.760742C6.6099 0.760742 6.69605 0.783758 6.77204 0.827489L12.774 4.28313H12.7752C12.7952 4.29562 12.8121 4.31123 12.8302 4.3256C12.8464 4.33809 12.8645 4.34933 12.8789 4.36307C12.8964 4.38118 12.9089 4.40179 12.9239 4.42178C12.9345 4.43677 12.9489 4.44989 12.9576 4.46612C12.972 4.49111 12.9801 4.51734 12.9901 4.54357C12.9951 4.55793 13.0038 4.57105 13.0076 4.58604C13.0191 4.6286 13.0249 4.67248 13.025 4.71657V17.5567L18.0265 14.6769V8.11288C18.0265 8.06916 18.0327 8.02482 18.0439 7.98297C18.0483 7.96798 18.0564 7.95487 18.0614 7.9405C18.0714 7.91427 18.0802 7.88741 18.0939 7.86306C18.1033 7.84682 18.117 7.8337 18.1276 7.81871C18.1426 7.79873 18.1551 7.77812 18.1726 7.76063C18.187 7.74627 18.2051 7.73565 18.2213 7.72316C18.24 7.70817 18.2563 7.69193 18.2763 7.68006L24.2795 4.22442C24.3554 4.18063 24.4416 4.15758 24.5293 4.15758C24.617 4.15758 24.7031 4.18063 24.7791 4.22442L30.781 7.68006C30.8023 7.69255 30.8185 7.70817 30.8372 7.72253C30.8529 7.73502 30.871 7.74627 30.8853 7.76001C30.9028 7.77812 30.9153 7.79873 30.9303 7.81871C30.9415 7.8337 30.9553 7.84682 30.964 7.86306C30.9784 7.88741 30.9865 7.91427 30.9965 7.9405C31.0021 7.95487 31.0102 7.96798 31.014 7.98297ZM30.0309 14.6769V8.97851L27.9306 10.1876L25.0289 11.8583V17.5567L30.0316 14.6769H30.0309ZM24.029 24.9851V19.283L21.1748 20.9131L13.0244 25.5647V31.3206L24.029 24.9851ZM1.02055 5.58157V24.9851L12.0239 31.3199V25.5653L6.27552 22.312L6.27365 22.3108L6.27115 22.3095C6.25179 22.2983 6.23555 22.2821 6.21744 22.2683C6.20183 22.2558 6.18371 22.2458 6.16997 22.2321L6.16873 22.2302C6.15249 22.2146 6.14125 22.1953 6.12751 22.1778C6.11501 22.1609 6.10002 22.1465 6.09003 22.1291L6.08941 22.1272C6.07817 22.1084 6.0713 22.086 6.06318 22.0647C6.05506 22.046 6.04444 22.0285 6.03944 22.0085C6.0332 21.9848 6.03195 21.9592 6.02945 21.9348C6.02695 21.9161 6.02196 21.8973 6.02196 21.8786V21.8774V8.46138L3.12092 6.79008L1.02055 5.58157ZM6.52285 1.83801L1.52206 4.71657L6.5216 7.59512L11.5218 4.71594L6.5216 1.83801H6.52285ZM9.12348 19.8026L12.0245 18.1326V5.58157L9.92415 6.7907L7.02249 8.46138V21.0124L9.12348 19.8026ZM24.5293 5.23495L19.5291 8.1135L24.5293 10.9921L29.5288 8.11288L24.5293 5.23495ZM24.029 11.8583L21.1273 10.1876L19.027 8.97851V14.6769L21.928 16.347L24.029 17.5567V11.8583ZM12.5235 24.6997L19.8576 20.5127L23.5238 18.4205L18.5273 15.5438L12.7746 18.8558L7.5315 21.8742L12.5235 24.6997Z" fill="white"></path></g><defs><clipPath id="clip0_23004_428"><rect width="31.2276" height="32.4767" fill="white" transform="translate(0.0200195 0.761719)"></rect></clipPath></defs></svg>