<svg viewBox="0 0 16 16" fill="#cbd5e1" xmlns="http://www.w3.org/2000/svg" width="14" height="15"><path opacity="0.2" d="M2.75 0.251923C1.23079 0.251923 0 1.48271 0 3.00192V11.5019C0 13.0211 1.23079 14.2519 2.75 14.2519H11.25C12.7692 14.2519 14 13.0211 14 11.5019V3.00192C14 1.48271 12.7692 0.251923 11.25 0.251923H2.75Z" fill="currentColor"></path><path fill-rule="evenodd" clip-rule="evenodd" d="M3 10.5019C3 10.0877 3.33579 9.75192 3.75 9.75192H7.25C7.66421 9.75192 8 10.0877 8 10.5019C8 10.9161 7.66421 11.2519 7.25 11.2519H3.75C3.33579 11.2519 3 10.9161 3 10.5019Z" fill="currentColor"></path><path fill-rule="evenodd" clip-rule="evenodd" d="M3 7.50192C3 7.08771 3.33579 6.75192 3.75 6.75192H10.25C10.6642 6.75192 11 7.08771 11 7.50192C11 7.91613 10.6642 8.25192 10.25 8.25192H3.75C3.33579 8.25192 3 7.91613 3 7.50192Z" fill="currentColor"></path><path d="M4 5.25192C4.552 5.25192 5 4.80392 5 4.25192C5 3.69992 4.552 3.25192 4 3.25192C3.448 3.25192 3 3.69992 3 4.25192C3 4.80392 3.448 5.25192 4 5.25192Z" fill="currentColor"></path></svg>