<svg viewBox="0 0 17 17" fill="#cbd5e1" xmlns="http://www.w3.org/2000/svg"><path opacity="0.2" d="M14.9442 3.83336C8.37694 4.40802 5.63907 9.06776 4.53613 12.1676C4.87951 12.3488 5.12733 12.461 5.12733 12.461C5.84733 12.7835 6.56022 12.9258 6.602 12.933C7.36111 13.0717 8.06244 13.1409 8.706 13.1409C10.0455 13.1409 11.1326 12.8406 11.9504 12.2431C12.2798 12.0022 12.8134 11.52 13.1859 10.6978C11.6543 10.3884 11.0095 9.79673 11.0095 9.79673C11.0095 9.79673 12.929 10.0222 13.7619 9.37638C14.2081 9.00482 14.561 8.48945 14.7539 7.749C14.8774 7.20491 14.9565 6.67869 15.0321 6.17025C15.1521 5.36945 15.265 4.6138 15.5219 4.165C15.5928 4.04153 15.6088 3.90331 15.5945 3.7666C15.204 3.80527 14.9442 3.83336 14.9442 3.83336Z" fill="currentColor"></path><path d="M3.83402 15.6112C3.80887 15.6112 3.78371 15.6099 3.75767 15.6068C3.39224 15.5651 3.12923 15.2348 3.17083 14.869C3.18301 14.7613 4.51802 4.07646 14.8861 3.16934C15.2481 3.13548 15.5763 3.40846 15.6084 3.77521C15.6405 4.14197 15.3688 4.46534 15.0025 4.49743C5.70735 5.31077 4.50682 14.9227 4.49553 15.02C4.45651 15.3603 4.16816 15.6112 3.83402 15.6112Z" fill="currentColor"></path><path fill-rule="evenodd" clip-rule="evenodd" d="M4.94423 2.05558C4.94423 1.6874 4.64575 1.38892 4.27756 1.38892C3.90937 1.38892 3.61089 1.6874 3.61089 2.05558V3.61114H2.05534C1.68715 3.61114 1.38867 3.90962 1.38867 4.2778C1.38867 4.64599 1.68715 4.94447 2.05534 4.94447H3.61089V6.50003C3.61089 6.86821 3.90937 7.16669 4.27756 7.16669C4.64575 7.16669 4.94423 6.86821 4.94423 6.50003V4.94447H6.49978C6.86797 4.94447 7.16645 4.64599 7.16645 4.2778C7.16645 3.90962 6.86797 3.61114 6.49978 3.61114H4.94423V2.05558Z" fill="currentColor"></path></svg>