<svg width="100%" height="100%" viewBox="0 0 162 38" fill="#cbd5e1" xmlns="http://www.w3.org/2000/svg"><path fill-rule="evenodd" clip-rule="evenodd" d="M156.577 5.54616C156.272 5.24065 155.885 5.08789 155.416 5.08789C154.947 5.08789 154.56 5.24065 154.255 5.54616C153.949 5.85167 153.796 6.23824 153.796 6.70742C153.796 7.17661 153.949 7.56318 154.255 7.86869C154.56 8.1742 154.947 8.32696 155.416 8.32696C155.885 8.32696 156.272 8.1742 156.577 7.86869C156.883 7.56318 157.035 7.17661 157.035 6.70742C157.035 6.23824 156.883 5.85167 156.577 5.54616Z" fill="#F1EFED"></path><path d="M156.669 11.1074H154.164V26.6886H156.669V11.1074Z" fill="#F1EFED"></path><path fill-rule="evenodd" clip-rule="evenodd" d="M94.0033 12.6351C92.842 11.4941 91.3144 10.9236 89.4206 10.9236C88.1985 10.9236 87.1604 11.1776 86.3046 11.6873C85.4691 12.1971 84.7973 12.858 84.2876 13.6732V5.30273H81.7827V26.6887H84.2876V18.8981C84.2876 17.1461 84.7054 15.7619 85.5408 14.7425C86.3966 13.7246 87.5469 13.2149 88.9935 13.2149C90.3589 13.2149 91.4064 13.642 92.1406 14.4978C92.8732 15.3332 93.241 16.5553 93.241 18.1639V26.6871H95.7459V18.0112C95.7459 15.5671 95.1661 13.7745 94.0048 12.6335L94.0033 12.6351Z" fill="#F1EFED"></path><path fill-rule="evenodd" clip-rule="evenodd" d="M113.419 19.3857C113.459 18.8962 113.48 18.5408 113.48 18.3164C113.439 16.8091 113.102 15.495 112.471 14.3759C111.84 13.2551 110.975 12.4009 109.874 11.8102C108.774 11.2194 107.511 10.9248 106.087 10.9248C104.662 10.9248 103.357 11.2615 102.236 11.9333C101.116 12.5849 100.241 13.5123 99.6084 14.7141C98.9974 15.9159 98.6919 17.311 98.6919 18.8993C98.6919 20.4877 99.0083 21.8625 99.6396 23.0846C100.291 24.2864 101.198 25.2232 102.358 25.895C103.519 26.5465 104.874 26.8723 106.422 26.8723C108.194 26.8723 109.69 26.3735 110.912 25.3759C112.135 24.3581 112.898 23.0534 113.204 21.465H110.668C110.403 22.4626 109.873 23.2467 109.079 23.8172C108.306 24.3674 107.359 24.6417 106.238 24.6417C104.791 24.6417 103.621 24.1835 102.724 23.2669C101.828 22.3504 101.359 21.1283 101.318 19.6008V19.3872H113.417L113.419 19.3857ZM103.002 14.2839C103.898 13.5092 104.936 13.1226 106.118 13.1226C107.441 13.1226 108.531 13.4889 109.386 14.2231C110.262 14.9557 110.761 15.9845 110.883 17.3094H101.473C101.594 16.0671 102.104 15.0586 103 14.2855L103.002 14.2839Z" fill="#F1EFED"></path><path fill-rule="evenodd" clip-rule="evenodd" d="M124.557 11.107V13.5511H123.304C121.817 13.5511 120.748 14.0499 120.096 15.0475C119.465 16.0451 119.148 17.2781 119.148 18.7449V26.6882H116.644V11.107H118.813L119.15 13.4592C119.597 12.7468 120.179 12.1763 120.891 11.7477C121.603 11.3206 122.592 11.1055 123.854 11.1055H124.557V11.107Z" fill="#F1EFED"></path><path fill-rule="evenodd" clip-rule="evenodd" d="M72.1493 13.3988H69.3389V11.1074H72.1493V6.73828H74.6542V11.1074H78.5947V13.3988H74.6542V22.5954C74.6542 23.2469 74.7758 23.7161 75.0205 24.0014C75.2855 24.2664 75.7328 24.3988 76.3641 24.3988H79.0826V26.6902H76.2114C74.7446 26.6902 73.6956 26.3644 73.0643 25.7129C72.4532 25.0613 72.1477 24.0325 72.1477 22.6266V13.4004L72.1493 13.3988Z" fill="#F1EFED"></path><path fill-rule="evenodd" clip-rule="evenodd" d="M67.8842 19.3857C67.9248 18.8962 67.945 18.5408 67.945 18.3164C67.9045 16.8091 67.5678 15.495 66.9365 14.3759C66.3052 13.2551 65.4401 12.4009 64.3397 11.8102C63.2392 11.2194 61.9766 10.9248 60.5519 10.9248C59.1272 10.9248 57.8225 11.2615 56.7018 11.9333C55.5811 12.5849 54.7051 13.5123 54.0738 14.7141C53.4627 15.9159 53.1572 17.311 53.1572 18.8993C53.1572 20.4877 53.4736 21.8625 54.1049 23.0846C54.7565 24.2864 55.6637 25.2232 56.8234 25.895C57.9847 26.5465 59.3392 26.8723 60.887 26.8723C62.6593 26.8723 64.1557 26.3735 65.3778 25.3759C66.5998 24.3581 67.3636 23.0534 67.6691 21.465H65.133C64.8681 22.4626 64.3381 23.2467 63.5447 23.8172C62.77 24.3674 61.8238 24.6417 60.7031 24.6417C59.2566 24.6417 58.086 24.1835 57.1897 23.2669C56.2934 22.3504 55.8242 21.1283 55.7837 19.6008V19.3872H67.8827L67.8842 19.3857ZM57.4656 14.2839C58.3619 13.5092 59.4 13.1226 60.5815 13.1226C61.9049 13.1226 62.9945 13.4889 63.8502 14.2231C64.7262 14.9557 65.225 15.9845 65.3466 17.3094H55.9365C56.058 16.0671 56.5678 15.0586 57.464 14.2855L57.4656 14.2839Z" fill="#F1EFED"></path><path fill-rule="evenodd" clip-rule="evenodd" d="M47.8222 11.1072L47.4855 13.796C46.9758 12.8795 46.2743 12.1765 45.3781 11.6886C44.4818 11.1789 43.4031 10.9248 42.139 10.9248C40.7127 10.9248 39.4299 11.2615 38.2889 11.9333C37.1479 12.6051 36.2516 13.5419 35.6001 14.7437C34.9688 15.9455 34.6523 17.3297 34.6523 18.8993C34.6523 20.5485 34.9688 21.9747 35.6001 23.1765C36.2516 24.3783 37.137 25.2949 38.2577 25.9262C39.3987 26.5574 40.6925 26.8739 42.1374 26.8739C44.5815 26.8739 46.3632 25.9168 47.4839 24.0027V25.8357C47.4839 29.1153 45.8036 30.7551 42.4429 30.7551C41.1398 30.7551 40.0705 30.4902 39.235 29.9602C38.3996 29.4302 37.8805 28.6773 37.6763 27.7H35.1106C35.3148 29.3897 36.0474 30.6943 37.31 31.6109C38.5928 32.5274 40.2436 32.9857 42.259 32.9857C47.4122 32.9857 49.9888 30.6336 49.9888 25.9277V11.1103H47.819L47.8222 11.1072ZM46.8745 21.9217C46.4474 22.7775 45.8363 23.4493 45.0414 23.9388C44.2667 24.4064 43.3813 24.6417 42.3837 24.6417C40.8359 24.6417 39.5826 24.1118 38.6256 23.0534C37.6888 21.9747 37.2196 20.589 37.2196 18.8978C37.2196 17.2065 37.6888 15.8317 38.6256 14.7733C39.5826 13.6931 40.8359 13.1538 42.3837 13.1538C43.3813 13.1538 44.2682 13.3985 45.0414 13.8864C45.8363 14.3759 46.4474 15.0679 46.8745 15.9642C47.3015 16.8402 47.5167 17.8378 47.5167 18.9586C47.5167 20.0793 47.3031 21.0457 46.8745 21.9217Z" fill="#F1EFED"></path><path fill-rule="evenodd" clip-rule="evenodd" d="M31.0486 14.7418C30.397 13.54 29.4805 12.6032 28.299 11.9314C27.1377 11.2595 25.8034 10.9229 24.2961 10.9229C22.7888 10.9229 21.4452 11.2595 20.2637 11.9314C19.1024 12.6032 18.1968 13.54 17.5452 14.7418C16.8936 15.9436 16.5679 17.3277 16.5679 18.8974C16.5679 20.467 16.8936 21.8512 17.5452 23.053C18.1968 24.2548 19.1039 25.1916 20.2637 25.8634C21.4452 26.5352 22.7888 26.8719 24.2961 26.8719C25.8034 26.8719 27.1377 26.5352 28.299 25.8634C29.4805 25.1916 30.397 24.2548 31.0486 23.053C31.7002 21.8512 32.0259 20.4655 32.0259 18.8974C32.0259 17.3293 31.7002 15.9436 31.0486 14.7418ZM28.818 21.8606C28.3909 22.7366 27.7799 23.4193 26.985 23.9072C26.2103 24.3966 25.314 24.6398 24.2961 24.6398C23.2783 24.6398 22.3711 24.3951 21.5777 23.9072C20.803 23.4177 20.2029 22.7366 19.7758 21.8606C19.3487 20.9845 19.1336 19.9963 19.1336 18.8974C19.1336 17.7985 19.3471 16.8102 19.7758 15.9342C20.2029 15.0582 20.8045 14.3755 21.5777 13.8876C22.3726 13.3981 23.2783 13.155 24.2961 13.155C25.314 13.155 26.2103 13.3997 26.985 13.8876C27.7799 14.377 28.3909 15.0582 28.818 15.9342C29.2451 16.8102 29.4602 17.7985 29.4602 18.8974C29.4602 19.9963 29.2467 20.9845 28.818 21.8606Z" fill="#F1EFED"></path><path fill-rule="evenodd" clip-rule="evenodd" d="M7.78698 13.3988H4.97656V11.1074H7.78698V6.73828H10.2919V11.1074H14.2324V13.3988H10.2919V22.5954C10.2919 23.2469 10.4135 23.7161 10.6582 24.0014C10.9232 24.2664 11.3705 24.3988 12.0018 24.3988H14.7203V26.6902H11.8491C10.3823 26.6902 9.33325 26.3644 8.70196 25.7129C8.09093 25.0613 7.78542 24.0325 7.78542 22.6266V13.4004L7.78698 13.3988Z" fill="#F1EFED"></path><path fill-rule="evenodd" clip-rule="evenodd" d="M150.557 24.3966C149.865 24.3966 149.519 24.0194 149.519 23.2665V16.5452C149.519 14.7324 148.969 13.3483 147.87 12.3896C146.791 11.4123 145.253 10.9229 143.256 10.9229C141.383 10.9229 139.855 11.3499 138.673 12.2057C137.512 13.0614 136.84 14.2523 136.656 15.7799H139.161C139.323 14.9849 139.752 14.3536 140.444 13.886C141.157 13.3966 142.053 13.1534 143.133 13.1534C144.355 13.1534 145.303 13.4387 145.975 14.0092C146.667 14.5797 147.013 15.3731 147.013 16.3925V17.4618H142.43C140.393 17.4618 138.836 17.8795 137.755 18.715C136.695 19.5505 136.167 20.7523 136.167 22.3204C136.167 23.7264 136.686 24.8362 137.726 25.6499C138.784 26.4651 140.179 26.8719 141.911 26.8719C144.193 26.8719 145.934 26.0068 147.136 24.275C147.156 25.07 147.381 25.6701 147.808 26.077C148.235 26.4838 148.949 26.688 149.946 26.688H151.321V24.3966H150.557ZM147.014 20.333C147.014 21.6564 146.576 22.7257 145.7 23.5409C144.824 24.3358 143.622 24.7318 142.095 24.7318C141.057 24.7318 140.231 24.4979 139.62 24.0288C139.009 23.5596 138.703 22.9392 138.703 22.1645C138.703 20.4327 139.864 19.5676 142.185 19.5676H147.013V20.3314L147.014 20.333Z" fill="#F1EFED"></path><path d="M129.005 26.6231C130.321 26.6231 131.388 25.556 131.388 24.2398C131.388 22.9235 130.321 21.8564 129.005 21.8564C127.689 21.8564 126.622 22.9235 126.622 24.2398C126.622 25.556 127.689 26.6231 129.005 26.6231Z" fill="white"></path></svg>