<svg width="100%" height="100%" viewBox="0 0 601 101" fill="#cbd5e1" xmlns="http://www.w3.org/2000/svg"><path d="M164.5 29.5C164.3 28.9 163.7 28.6 163.1 28.6H162.3C161.7 28.6 161.2 28.9 160.9 29.5L135.8 83.8C135.3 84.8 136.1 86 137.2 85.9H144.2C145.2 85.9 146.2 85.3 146.5 84.3L150.5 75.5H174.6L178.6 84.3C178.9 85.3 179.9 86 181 85.9H188C189.1 86 189.9 84.8 189.4 83.8L164.5 29.5ZM154.5 66.6L162.5 48.8L170.6 66.7L154.5 66.6ZM241.5 29.4H234.1C233.2 29.4 232.5 30.1 232.5 31V64.4L198.8 28.6H196.8C196 28.6 195.3 29.3 195.3 30.1V84.4C195.3 85.2 196 85.9 196.8 86H204.2C205.1 86 205.8 85.3 205.8 84.4V49.7L239.5 86.8H241.4C242.2 86.8 243 86.2 243 85.3V31C243 30.1 242.3 29.4 241.5 29.4ZM277.8 29.5C277.6 28.9 277 28.6 276.4 28.6H275.6C275 28.6 274.5 28.9 274.2 29.5L249 83.8C248.5 84.8 249.2 86 250.4 85.9H257.4C258.4 85.9 259.4 85.3 259.7 84.3L263.9 75.5H287.8L291.8 84.3C292.1 85.3 293.1 86 294.1 85.9H301.1C302.2 86 303 84.8 302.5 83.8L277.8 29.5ZM267.7 66.6L275.6 48.7H275.8L283.9 66.6H267.7ZM346.8 71.5C346.2 71 345.3 71 344.8 71.5C341.4 74.4 337.1 76 332.6 76.1C322.4 76 314.3 67.6 314.5 57.5C314.2 47.4 322.3 38.9 332.4 38.7C337 38.8 341.4 40.5 344.8 43.5C345.3 44.2 346.3 44.2 346.8 43.5L351.7 38.4C352.4 37.8 352.4 36.7 351.7 36.1C346.4 31.1 339.4 28.3 332.1 28.5C324.2 28.2 316.6 31.2 310.9 36.7C305.2 42.2 302 49.7 302 57.6C302 65.5 305.2 73 310.9 78.5C316.6 84 324.2 86.9 332.1 86.7C339.4 86.8 346.5 84 351.7 78.9C352.3 78.3 352.3 77.3 351.7 76.7L346.8 71.5ZM384.9 28.6C377.2 28.6 369.8 31.7 364.3 37.1C358.9 42.6 355.8 50 355.9 57.7C355.9 73.7 368.9 86.7 384.9 86.7C400.9 86.7 413.9 73.7 413.9 57.7C413.9 50 410.9 42.5 405.4 37.1C400.1 31.6 392.7 28.5 384.9 28.6ZM384.9 76.3C368.3 76.3 360 56.3 371.8 44.6C383.5 32.9 403.6 41.3 403.5 57.9C403.4 68 395.2 76.3 384.9 76.3ZM469 29.4H461.6C460.7 29.4 460 30.1 460 31V64.4L426.3 28.6H424.3C423.5 28.6 422.8 29.2 422.7 30.1V84.4C422.7 85.3 423.4 85.9 424.3 86H431.6C432.5 86 433.2 85.3 433.2 84.4V49.7L467 86.8H468.9C469.7 86.8 470.4 86.2 470.4 85.3V31C470.5 30.1 469.9 29.4 469 29.4ZM501.4 29.4H482.2C481.4 29.4 480.7 30.1 480.7 31V84.4C480.7 85.2 481.3 85.9 482.2 86H501.4C509.1 86.2 516.5 83.4 522 78.1C527.5 72.8 530.6 65.4 530.6 57.8C530.6 50.1 527.5 42.8 522 37.5C516.5 32 509.1 29.1 501.4 29.4ZM500.4 76.1H491.2V39.2H500.4C510.6 39 518.8 47.4 518.6 57.6C518.9 67.8 510.7 76.2 500.4 76.1ZM583.7 83.8L558.9 29.4C558.7 28.8 558.1 28.5 557.5 28.5H556.7C556.1 28.5 555.6 28.8 555.3 29.4L530.2 83.8C529.7 84.8 530.5 86 531.6 85.9H538.6C539.7 85.9 540.6 85.3 541 84.3L544.9 75.5H569.1L573 84.3C573.3 85.3 574.3 86 575.4 85.9H582.4C583.5 86 584.3 84.8 583.7 83.8ZM548.9 66.6L556.8 48.7H557.1L565.2 66.6H548.9ZM593.8 85H594.3C594.4 85 594.5 84.9 594.5 84.8V83.3H595.3L596 84.9C596 85 596.1 85.1 596.2 85.1H596.8C597 85.1 597.1 84.9 597 84.7C596.8 84.2 596.6 83.7 596.3 83.2C596.9 83 597.3 82.4 597.3 81.7C597.3 80.8 596.6 80.1 595.7 80.2H593.7C593.6 80.2 593.5 80.3 593.5 80.4V84.8C593.6 84.9 593.7 85 593.8 85ZM594.5 81.1H595.7C596.1 81.1 596.4 81.4 596.4 81.8C596.4 82.2 596.1 82.5 595.7 82.4H594.5V81.1Z" fill="var(--color-text-main)"></path><path d="M595.3 87.4C598.1 87.6 600.5 85.4 600.5 82.6C600.5 79.8 598.1 77.6 595.3 77.8C589.4 78.3 589.4 86.9 595.3 87.4ZM595.3 78.8C597.6 78.6 599.5 80.4 599.5 82.6C599.5 84.9 597.6 86.6 595.3 86.4C593 86.6 591.1 84.8 591.1 82.6C591.1 80.3 593 78.6 595.3 78.8Z" fill="var(--color-text-main)"></path><path d="M18.9 77V76.6C19 73.7 19.2 70.9 19.6 68V67.7H19.3C16.7 66.6 14.1 65.4 11.6 64L11.3 63.8L11.1 64.1C9.5 67.4 8.1 70.9 7 74.4V74.7H7.4C11.1 75.7 14.8 76.4 18.6 76.8L18.9 77ZM26.7 26.5C24.5 26.5 22.4 26.7 20.2 26.9C20.5 29.1 20.9 31.2 21.3 33.4C22.8 30.8 24.6 28.5 26.7 26.5ZM18.9 79.6V79.3H18.6C15.4 79 12.2 78.5 9 77.7L8.2 77.5L8.7 78.2C11.6 82.5 15.1 86.4 19.1 89.6L19.8 90.1V89.3C19.3 86.1 19.1 82.8 18.9 79.6ZM34.4 3.40001C30.6 4.70001 26.9 6.50001 23.5 8.70001C26 9.10001 28.6 9.70002 31 10.5C32.1 8.10002 33.2 5.70001 34.4 3.40001ZM50.6 0.700012C48.7 0.700012 46.8 0.800015 44.9 1.00002C47.5 2.80002 50.1 4.80002 52.4 7.00002L54.4 8.80002L52.5 10.7C50.9 12.3 49.3 14 47.8 15.7L47.1 16.6C48.3 16.5 49.5 16.4 50.7 16.4C61.3 16.5 71.2 21.6 77.5 30C83.8 38.5 85.8 49.4 83 59.6C80.1 69.8 72.7 78 62.9 81.9C53.1 85.8 42 84.9 32.9 79.5C30.4 79.8 27.8 79.9 25.2 79.9H21.6C21.7 83.9 22.1 87.9 22.7 91.8C35.8 100.6 52.3 102.7 67.2 97.4C82.1 92.1 93.6 80.1 98.2 65C102.8 49.9 100 33.5 90.6 20.8C81.2 8.20002 66.4 0.700012 50.6 0.700012ZM44 12.6C45 11.4 46 10.3 47 9.20001C44.7 7.20001 42.3 5.30001 39.7 3.70001C38.1 6.40001 36.7 9.20002 35.6 12C37.9 12.8 40.1 13.7 42.3 14.7C42.7 14 43.4 13.3 44 12.6ZM10.2 40.9L10.4 41.2L10.7 41C13 39.4 15.4 37.8 17.9 36.5L18.1 36.3V36.1C17.3 33.2 16.8 30.3 16.4 27.4V27H16C12.3 27.7 8.7 28.7 5.2 30H4.9V30.3C6.3 34 8.1 37.5 10.2 40.9ZM9.6 45.7L9.3 45.9C6.6 48.1 4.1 50.5 1.7 53.1L1.5 53.4L1.8 53.6C4.4 55.9 7.2 57.9 10.1 59.8L10.4 60L10.6 59.7C11.9 57.3 13.4 55.1 15 52.9V52.7L14.8 52.5C13 50.5 11.4 48.3 9.8 46.1L9.6 45.7ZM29.1 77.2H30L29.3 76.7C26.6 74.5 24.3 71.9 22.5 69.1L22 68.9V69.4C21.7 71.9 21.5 74.5 21.4 77V77.3H25.3C26.4 77.2 27.8 77.2 29.1 77.2ZM27.5 22.1C28 19.6 28.7 17.2 29.5 14.8C26.4 13.9 23.2 13.2 20 12.8C19.7 16 19.7 19.3 20 22.5C22.3 22.3 24.9 22.2 27.5 22.1ZM32.3 21.9C34.5 20.5 36.8 19.4 39.2 18.6C37.4 17.8 35.7 17 33.8 16.3C33.2 18.2 32.7 20 32.3 21.9ZM9.1 62.4L8.8 62.2C6.2 60.6 3.79999 58.8 1.39999 56.9L0.699997 56.4V57.2C1.3 62 2.7 66.7 4.6 71L4.9 71.8L5.2 71C6.2 68.2 7.4 65.4 8.7 62.7L9.1 62.4ZM15.5 15.1C12.5 18.1 9.9 21.4 7.8 25C10.4 24.2 13 23.6 15.6 23.2C15.4 20.5 15.4 17.8 15.5 15.1ZM17 50.1V49.2C17.1 46.2 17.6 43.2 18.5 40.3L18.8 39.5L18.1 39.9C16.2 41 14.2 42.3 12.4 43.6L12.1 43.8L12.3 44.1C13.6 45.9 15 47.7 16.4 49.4L17 50.1ZM17.3 55.2V54.3L16.8 55C15.4 56.9 14.1 58.9 13 61L12.8 61.3L13.1 61.5C15.2 62.7 17.4 63.7 19.6 64.7L20.4 65.1L20 64.3C18.7 61.4 17.8 58.4 17.3 55.2ZM7.6 43.3L7.8 43.1L7.6 42.8C6 40.3 4.6 37.7 3.3 35L3 34.2L2.7 35C1.2 39.5 0.400003 44.2 0.300003 49V49.9L0.899994 49.3C3.09999 47.2 5.3 45.2 7.6 43.3Z" fill="#44A833"></path></svg>