<svg width="100%" height="100%" viewBox="0 0 80 33" fill="#cbd5e1" xmlns="http://www.w3.org/2000/svg"><g clip-path="url(#clip0_10964_357277)"><path d="M38.832 20.6156C38.3969 21.0291 37.8921 21.3736 37.3175 21.6148C36.7604 21.856 36.1335 21.9766 35.472 21.9766C35.1238 21.9766 34.7931 21.9422 34.4798 21.8733C34.1664 21.8044 33.8529 21.701 33.557 21.5804C33.2611 21.4427 32.9824 21.2876 32.7214 21.1153C32.4602 20.9256 32.2164 20.719 32.0076 20.495L40.2421 17.3424L43.7414 15.9986C43.5501 14.7927 43.1147 13.6556 42.4532 12.6736C40.9559 10.4341 38.3795 8.96973 35.472 8.96973C30.8585 8.96973 27.0983 12.6909 27.0983 17.2562C27.0983 17.687 27.1329 18.1004 27.2026 18.5139C27.3941 19.7198 27.8293 20.8569 28.491 21.8388C28.8738 22.39 29.3091 22.9069 29.814 23.3549C30.319 23.8029 30.8585 24.1991 31.4679 24.5265C32.0597 24.8536 32.704 25.1123 33.3829 25.2842C34.0618 25.4566 34.7582 25.5428 35.4894 25.5428C36.6383 25.5428 37.7526 25.3188 38.7448 24.8883C39.7547 24.4747 40.6426 23.8544 41.4085 23.1137C42.1748 22.3557 42.784 21.477 43.2019 20.4778C43.3758 20.0644 43.515 19.6164 43.6196 19.1686H39.8245C39.5981 19.7198 39.2671 20.2021 38.832 20.6156ZM35.4894 12.5186C36.8473 12.5186 38.0833 13.1044 38.954 14.0002L30.7193 17.1529C30.7713 14.6032 32.8955 12.5186 35.4894 12.5186Z" fill="currentColor"></path><path d="M23.6793 18.6377L23.6618 0.381836H20.0196L20.037 18.5511C20.037 22.3861 22.6163 25.1107 26.3804 25.3882V21.8134C24.7948 21.5532 23.6793 20.3037 23.6793 18.6377Z" fill="currentColor"></path><path d="M23.6399 18.67L23.6224 0.414062H19.9802L19.9977 18.5833C19.9977 22.4184 22.5769 25.1429 26.3411 25.4204V21.8456C24.7554 21.5854 23.6399 20.3359 23.6399 18.67Z" fill="currentColor"></path><path d="M62.2006 16.9612C62.0236 12.5508 58.2942 9.00195 53.716 9.00195C49.0321 9.00195 45.2141 12.7232 45.2141 17.2884C45.2141 21.8536 49.0321 25.575 53.716 25.575C55.519 25.575 57.1983 25.0236 58.5769 24.0761V25.4198H62.2357L62.2006 16.9955V16.9612ZM53.716 22.0261C51.0471 22.0261 48.8728 19.9071 48.8728 17.3057C48.8728 14.7044 51.0471 12.5853 53.716 12.5853C56.3852 12.5853 58.5592 14.7043 58.5592 17.3057C58.5592 19.9072 56.3852 22.0261 53.716 22.0261Z" fill="currentColor"></path><path d="M71.7409 8.90967C67.4266 8.90967 63.9293 12.3857 63.9293 16.6736V25.465H67.6428V16.6678C67.6428 14.438 69.4615 12.6304 71.7048 12.6304H71.7767C74.0203 12.6304 75.839 14.438 75.839 16.6678V25.465H79.5525V16.6736C79.5525 12.3857 76.0552 8.90967 71.7409 8.90967Z" fill="currentColor"></path><path fill-rule="evenodd" clip-rule="evenodd" d="M12.3896 9.69155L14.7694 6.66406L17.6573 8.90657L15.2949 11.9119C16.5144 13.3613 17.2484 15.2281 17.2484 17.2653C17.2484 21.8771 13.4869 25.6156 8.84694 25.6156C4.20694 25.6156 0.445496 21.877 0.445496 17.2653C0.445496 12.6537 4.20694 8.91512 8.84694 8.91512C10.1127 8.91512 11.3131 9.1933 12.3896 9.69155ZM8.84694 22.0293C6.19973 22.0293 4.05375 19.8964 4.05375 17.2653C4.05375 14.6343 6.19973 12.5014 8.84694 12.5014C11.4942 12.5014 13.6401 14.6343 13.6401 17.2653C13.6401 19.8964 11.4942 22.0293 8.84694 22.0293ZM17.3461 24.4089C17.1381 24.6539 16.9188 24.8877 16.6899 25.115C16.461 25.3409 16.2225 25.5573 15.9744 25.7627C15.7279 25.9678 15.4718 26.1619 15.2061 26.3449C14.942 26.5278 14.6683 26.7012 14.3882 26.8602C14.1097 27.0209 13.8232 27.1673 13.5303 27.3025C13.2389 27.4379 12.9412 27.5604 12.6371 27.6683C12.3346 27.7782 12.0273 27.8737 11.7135 27.9549C11.4046 28.0392 11.0893 28.1075 10.7708 28.1617C10.4555 28.2174 10.1353 28.2587 9.81203 28.2857C9.49349 28.3129 9.17177 28.327 8.84685 28.327C8.52193 28.327 8.20021 28.3129 7.88169 28.2857C7.55835 28.2587 7.23823 28.2174 6.92291 28.1617C6.60439 28.1075 6.28907 28.0392 5.98015 27.9549L5.03737 31.4515C5.44713 31.5613 5.8665 31.6535 6.29067 31.7268C6.70841 31.7999 7.13418 31.8556 7.56475 31.8907C7.98731 31.9272 8.41468 31.9463 8.84685 31.9463C9.27901 31.9463 9.70638 31.9272 10.1289 31.8907C10.5595 31.8556 10.9837 31.7999 11.403 31.7268C11.8272 31.6535 12.245 31.5613 12.6563 31.4515C13.0725 31.3433 13.4823 31.216 13.8824 31.0696C14.2873 30.9249 14.6827 30.7628 15.0701 30.583C15.459 30.4031 15.84 30.2076 16.2097 29.996C16.5811 29.7827 16.9428 29.5537 17.2933 29.3087C17.6455 29.0654 17.9864 28.8074 18.3145 28.5338C18.6442 28.2603 18.9612 27.9738 19.2637 27.6731C19.5678 27.3725 19.8575 27.0608 20.1344 26.7346C20.4113 26.4101 20.6738 26.0712 20.9203 25.7228L17.9384 23.6467C17.7527 23.9092 17.5542 24.1639 17.3461 24.4089Z" fill="currentColor"></path></g><defs><clipPath id="clip0_10964_357277"><rect width="79.2836" height="32" fill="white" transform="translate(0.358215 0.164062)"></rect></clipPath></defs></svg>