<svg viewBox="0 0 16 16" fill="#cbd5e1" xmlns="http://www.w3.org/2000/svg"><path opacity="0.2" d="M2.75 4C1.23079 4 0 5.23079 0 6.75V13.25C0 14.7692 1.23079 16 2.75 16H13.25C14.7692 16 16 14.7692 16 13.25V6.75C16 5.23079 14.7692 4 13.25 4H2.75Z" fill="currentColor"></path><path d="M6 2.25C6 2.11221 6.11221 2 6.25 2H9.75C9.8878 2 10 2.11221 10 2.25V4H11.5V2.25C11.5 1.28379 10.7162 0.5 9.75 0.5H6.25C5.28379 0.5 4.5 1.28379 4.5 2.25V4H6V2.25Z" fill="currentColor"></path><path opacity="0.88" d="M16 9.22612C15.8497 9.2968 15.7007 9.37206 15.5483 9.43812C14.0685 10.0796 11.4191 11.003 7.99997 11.003C4.5808 11.003 1.93149 10.0796 0.45168 9.43812L0 9.22875V7.57505L1.05696 8.06563C2.42083 8.65598 4.85783 9.50299 7.99997 9.50299C11.1408 9.50299 13.5771 8.65668 14.9413 8.06637L16 7.5686V9.22612Z" fill="currentColor"></path></svg>