<svg width="100%" height="100%" viewBox="0 0 463 100" fill="#cbd5e1" xmlns="http://www.w3.org/2000/svg"><g clip-path="url(#clip0_23054_629)"><path d="M40.8 56.4998H57.9L62.9 59.6998H40L29.8 91.4998C18.4 87.0998 7.90003 76.8998 3.50003 65.3998C-1.19997 54.2998 -1.19997 40.2998 3.60003 29.1998C8.10003 17.7998 18.9 7.39983 30.4 3.09983C39.5 -0.600175 51.6 -1.00017 61.2 1.99983C72.2 5.19983 82.6 12.9998 88.7 23.3998C95.5 34.6998 97.4 49.0998 93.3 61.9998C90.7 70.5998 85.4 78.7998 78 84.5998L65.2 63.3998L82.8 73.1998C82.9 73.1998 82.9 73.0998 82.9 72.9998L59.9 53.0998L89.7 57.5998C89.8 57.5998 89.8 57.5998 89.8 57.4998L89.6 57.3998L61.5 47.4998L90.7 40.3998C90.8 40.3998 90.8 40.2998 90.7 40.2998L60.7 42.2998L84.2 24.4998C84.3 24.3998 84 24.3998 84 24.4998L57.7 37.8998L72.3 12.1998C72.3 12.1998 72.3 12.0998 72.2 12.0998L53.2 34.3998L56.9 5.09982C56.8 4.99982 56.7 4.99983 56.6 4.99983L47.9 33.4998L40.2 4.19982C40.1 4.19982 40 4.09982 40 4.19982L42.1 34.5998L24.1 11.0998C24 10.9998 24 11.0998 23.9 11.0998L37.6 37.0998L11.8 23.0998L11.7 23.1998L34.7 42.0998L5.30003 38.8998C5.20003 38.9998 5.20003 38.9998 5.30003 39.0998L33.7 47.3998L5.40003 55.6998C5.30003 55.6998 5.30003 55.7998 5.40003 55.8998L34.6 52.4998L11.7 71.9998C11.6 71.9998 11.6 72.0998 11.7 72.1998L12 71.9998L30.3 62.3998L34.6 55.4998H39.5L36.1 53.0998L47.5 34.9998L40.8 56.4998Z" class="fill-[#231F20] dark:fill-white"></path><path d="M125.3 80.4996H102.5L120.8 15.0996H167.7L163.2 30.5996H139.3L136.2 41.6996H160.1L156.1 55.9996H132.2L125.3 80.4996Z" class="fill-[#231F20] dark:fill-white"></path><path d="M178.3 80.5H155.7L169.1 32.7H191.7L178.3 80.5ZM192.9 28.1H170.3L174 15H196.6L192.9 28.1Z" class="fill-[#231F20] dark:fill-white"></path><path d="M236.9 80.5002H214.7L216.3 75.2002C211.8 79.0002 207.3 81.7002 200 81.7002C192.6 81.7002 188 78.2002 188 70.7002C188 62.5002 191.2 50.2002 196.1 41.6002C199.6 35.2002 205.9 31.9002 213.4 31.9002C219.8 31.9002 224.5 34.7002 226.4 38.2002L232.7 15.2002H255.3L236.9 80.5002ZM219.9 46.9002C217.9 46.9002 215.9 47.5002 214.7 50.3002C213 54.3002 211.5 58.3002 211.5 62.2002C211.5 64.0002 212.8 65.6002 215 65.6002C216.8 65.6002 217.9 65.1002 218.9 64.5002L223.5 48.8002C222.7 47.7002 221.3 46.9002 219.9 46.9002Z" class="fill-[#231F20] dark:fill-white"></path><path d="M300.8 59.5994H269.6C269 62.0994 268.4 63.8994 268.4 65.8994C268.4 66.8994 268.6 69.2994 271.7 69.2994C274.9 69.2994 276.3 68.0994 277.6 63.3994H299.8C297 76.9994 280.9 81.5994 271 81.5994C257.6 81.5994 247.2 79.6994 247.2 66.7994C247.2 59.6994 250.8 47.9994 255.5 41.6994C261.2 34.1994 271.1 31.3994 280.2 31.3994C294.2 31.3994 303.3 34.2994 303.3 46.1994C303.2 49.2994 302 55.6994 300.8 59.5994ZM278.2 43.5994C275.4 43.5994 273.5 45.4994 272.2 50.2994H281.5C281.8 49.2994 282.1 47.7994 282.1 46.9994C282.1 44.3994 280.5 43.5994 278.2 43.5994Z" class="fill-[#231F20] dark:fill-white"></path><path d="M323.5 80.4996H300.9L319.2 15.0996H341.8L323.5 80.4996Z" class="fill-[#231F20] dark:fill-white"></path><path d="M353.4 80.5H330.8L344.2 32.7H366.8L353.4 80.5ZM368 28.1H345.4L349.1 15H371.7L368 28.1Z" class="fill-[#231F20] dark:fill-white"></path><path d="M408.6 32.6994L410.6 43.4994H393.3L388.2 61.5994C387.8 62.9994 387.4 64.7994 387.4 65.8994C387.4 67.9994 388.3 68.6994 391.3 68.6994H396.1L392.8 80.3994H372.6C365.9 80.3994 363.4 77.1994 363.4 72.1994C363.4 70.1994 363.7 67.9994 364.4 65.4994L376.7 21.8994H399.3L396.3 32.4994H408.6V32.6994Z" class="fill-[#231F20] dark:fill-white"></path><path d="M102 87.7998H107.6L104 99.5998H98.4L102 87.7998Z" class="fill-[#231F20] dark:fill-white"></path><path d="M121.7 87.7998H129.9L132 95.6998H132.1L134.5 87.7998H139.4L135.8 99.4998L127.9 99.5998L125.6 91.1998H125.5L123 99.4998H118.1L121.7 87.7998Z" class="fill-[#231F20] dark:fill-white"></path><path d="M150.1 87.7998H156.3L157.3 95.1998L163 87.7998H168.8L159.3 99.4998L152.4 99.5998L150.1 87.7998Z" class="fill-[#231F20] dark:fill-white"></path><path d="M179.6 87.7998H192.4L191.7 90.1998H184.3L183.6 92.5998H190.5L189.8 94.8998H182.9L182.2 97.1998H189.6L188.9 99.5998H176L179.6 87.7998Z" class="fill-[#231F20] dark:fill-white"></path><path d="M234.6 90.6998H230.2L231.1 87.7998H245.5L244.7 90.6998H240.3L237.6 99.4998H231.9L234.6 90.6998Z" class="fill-[#231F20] dark:fill-white"></path><path d="M257.2 87.7998H265.7L266.1 95.6998H266.2L271.3 87.7998H279.8L276.3 99.5998H271L273.7 90.6998L267.3 99.5998H261.9L261.1 90.6998L258.4 99.4998H253.6L257.2 87.7998Z" class="fill-[#231F20] dark:fill-white"></path><path d="M315.7 87.7998H323.9L326.1 95.6998L328.5 87.7998H333.4L329.8 99.5998L321.8 99.4998L319.6 91.1998L317 99.4998H312.1L315.7 87.7998Z" class="fill-[#231F20] dark:fill-white"></path><path d="M346.9 90.6998H342.5L343.4 87.7998H357.8L356.9 90.6998H352.5L349.9 99.4998H344.2L346.9 90.6998Z" class="fill-[#231F20] dark:fill-white"></path><path d="M444.8 70.8994C441.4 70.8994 438.7 73.6994 438.7 76.9994C438.7 80.3994 441.5 83.0994 444.8 83.0994C448.2 83.0994 450.9 80.2994 450.9 76.9994C451 73.5994 448.2 70.8994 444.8 70.8994ZM444.8 82.0994C442 82.0994 439.7 79.7994 439.7 76.9994C439.7 74.1994 442 71.8994 444.8 71.8994C447.6 71.8994 449.9 74.1994 449.9 76.9994C449.9 79.7994 447.6 82.0994 444.8 82.0994Z" class="fill-[#231F20] dark:fill-white"></path><path d="M447.3 75.6998C447.3 74.4998 446.6 73.7998 445.1 73.7998H442.7V80.0998H443.8V77.4998H444.6L446.2 80.0998H447.4L445.7 77.3998C446.6 77.3998 447.3 76.7998 447.3 75.6998ZM443.8 76.5998V74.7998H444.6C445.3 74.7998 446.1 74.7998 446.1 75.6998C446.1 76.5998 445.3 76.5998 444.6 76.5998H443.8Z" class="fill-[#231F20] dark:fill-white"></path><path d="M209.7 91.4C209.6 91.3 209.6 91 209.6 90.9C209.8 90.3 210.5 89.9 211.7 89.9C212.4 89.9 213.5 89.9999 213.8 90.1999C214.1 90.3999 214.2 90.7999 214.1 91.1999H219.1C219.7 89.0999 218.4 87.7 212.7 87.8C207.3 87.8 204.3 88.9999 203.5 91.4999C203.3 92.1999 203.3 92.9999 203.8 93.4999C205.2 94.8999 211.4 95.3999 211.9 96.1999C212 96.2999 212 96.4999 212 96.6999C211.7 97.5999 210.4 97.9 209.2 97.9C208.5 97.9 207.5 97.7 207.2 97.4C206.9 97.1 206.9 96.6 207.1 96.3H201.9C201.4 98.1 201.2 99.9999 208.4 99.9999C214.5 99.9999 217.3 98.4999 218 96.1999C218.3 95.0999 218 94.3999 217.6 93.9999C216.3 92.5999 210.3 92.1 209.7 91.4Z" class="fill-[#231F20] dark:fill-white"></path><path d="M291.3 87.7998H304.1L303.4 90.1998H296L295.3 92.5998H302.2L301.5 94.8998H294.6L293.9 97.1998H301.4L300.6 99.5998H287.7L291.3 87.7998Z" class="fill-[#231F20] dark:fill-white"></path><path d="M439.2 32.7002L426.9 59.2002L427.3 32.7002H404.4L408.8 80.5002C408.2 83.3002 407.3 84.9002 405.6 85.6002C403.7 86.5002 399.3 86.3002 397.8 86.2002H397.5L393.9 99.2002H409.3C418.4 99.2002 422.9 94.6002 429.4 84.5002L462.3 32.7002H439.2Z" class="fill-[#231F20] dark:fill-white"></path><path d="M372.4 91.4C372.3 91.3 372.3 91 372.3 90.9C372.5 90.3 373.2 89.9 374.4 89.9C375.1 89.9 376.2 89.9999 376.5 90.1999C376.8 90.3999 376.9 90.7999 376.8 91.1999H381.8C382.4 89.0999 381.1 87.7 375.4 87.8C370.1 87.8 367 88.9999 366.2 91.4999C366 92.1999 366 92.9999 366.5 93.4999C367.9 94.8999 374.1 95.3999 374.6 96.1999C374.7 96.2999 374.7 96.4999 374.7 96.6999C374.4 97.5999 373.1 97.9 371.9 97.9C371.2 97.9 370.2 97.7 369.9 97.4C369.6 97.1 369.6 96.6 369.8 96.3H364.6C364.1 98.1 363.9 99.9999 371.1 99.9999C377.2 99.9999 380 98.4999 380.7 96.1999C381 95.0999 380.7 94.3999 380.3 93.9999C379.1 92.5999 373.1 92.1 372.4 91.4Z" class="fill-[#231F20] dark:fill-white"></path></g><defs><clipPath id="clip0_23054_629"><rect width="462.3" height="100" fill="white"></rect></clipPath></defs></svg>