<svg xmlns="http://www.w3.org/2000/svg" width="100%" height="100%" viewBox="0 0 106 26" fill="#cbd5e1"><path d="M105.207 9.08297V7.60255C105.207 7.34833 104.998 7.15392 104.729 7.15392H99.5395V4.28262C99.5395 4.0284 99.3302 3.83398 99.0607 3.83398H97.0875C96.8181 3.83398 96.6088 4.04333 96.6088 4.28262V7.15392H93.5433C93.2738 7.15392 93.0645 7.36326 93.0645 7.60255V9.08297C93.0645 9.33718 93.2738 9.5316 93.5433 9.5316H96.6088V13.9283C96.6088 17.293 98.1933 18.8482 101.604 18.8482H104.384C104.654 18.8482 104.863 18.6389 104.863 18.3996V16.9192C104.863 16.665 104.654 16.4706 104.384 16.4706H102.052C100.198 16.4706 99.5395 15.7378 99.5395 13.9133V9.54663H104.729C104.998 9.5316 105.207 9.32226 105.207 9.08297Z" fill="var(--color-text-main)"></path><path d="M89.6098 2.63672H86.9179C86.6488 2.63672 86.4395 2.84606 86.4395 3.08535V4.98456C86.4395 5.23877 86.6488 5.43319 86.9179 5.43319H89.6098C89.879 5.43319 90.0883 5.22385 90.0883 4.98456V3.08535C90.0734 2.83114 89.8641 2.63672 89.6098 2.63672Z" fill="var(--color-text-main)"></path><path d="M89.9682 16.469V7.60098C89.9682 7.34676 89.7588 7.15234 89.4896 7.15234H83.463C83.1938 7.15234 82.9844 7.36168 82.9844 7.60098V9.0814C82.9844 9.33561 83.1938 9.53003 83.463 9.53003H87.0371V16.469H83.463C83.1938 16.469 82.9844 16.6783 82.9844 16.9176V18.398C82.9844 18.6523 83.1938 18.8467 83.463 18.8467H93.6317C93.9011 18.8467 94.1105 18.6373 94.1105 18.398V16.9176C94.1105 16.6634 93.9011 16.469 93.6317 16.469H89.9682Z" fill="var(--color-text-main)"></path><path d="M80.7279 16.4696H77.6772V3.08535C77.6772 2.83114 77.4679 2.63672 77.1987 2.63672H71.2169C70.9477 2.63672 70.7384 2.84606 70.7384 3.08535V4.56587C70.7384 4.82009 70.9477 5.01451 71.2169 5.01451H74.7461V16.4696H70.7833C70.514 16.4696 70.3047 16.679 70.3047 16.9183V18.3987C70.3047 18.6529 70.514 18.8473 70.7833 18.8473H80.7279C80.9972 18.8473 81.2065 18.638 81.2065 18.3987V16.9183C81.2065 16.6641 80.9972 16.4696 80.7279 16.4696Z" fill="var(--color-text-main)"></path><path d="M64.488 6.92969C63.4711 6.92969 62.7383 7.15406 62.1701 7.69233L61.4673 8.36534H60.8242L60.5849 7.49802C60.5251 7.3036 60.3456 7.15406 60.1214 7.15406H58.7755C58.5062 7.15406 58.2969 7.3634 58.2969 7.60269V22.916C58.2969 23.1703 58.5062 23.3647 58.7755 23.3647H60.7494C61.0186 23.3647 61.228 23.1553 61.228 22.916V19.5961L60.9738 17.8166L61.6317 17.6671L62.3346 18.34C62.8879 18.8484 63.5609 19.1026 64.5628 19.1026C67.464 19.1026 69.2136 17.0987 69.2136 13.0161C69.1987 8.93357 67.464 6.92969 64.488 6.92969ZM63.516 16.6501C62.0355 16.6501 61.2131 15.8874 61.2131 14.4369V11.5656C61.2131 10.115 62.0206 9.35235 63.516 9.35235C65.3255 9.35235 66.148 10.4889 66.148 12.9863C66.133 15.5135 65.3255 16.6501 63.516 16.6501Z" fill="var(--color-text-main)"></path><path d="M49.9358 6.92969C46.1673 6.92969 44.1484 8.93357 44.1484 13.0012C44.1484 17.0838 46.1523 19.0877 49.8611 19.0877C52.7323 19.0877 54.5867 17.8913 55.0802 15.8426C55.1549 15.5584 54.9156 15.2893 54.6166 15.2893H52.822C52.6276 15.2893 52.4482 15.4089 52.3734 15.5884C52.0594 16.4707 51.1621 16.8894 49.9508 16.8894C48.0665 16.8894 47.1693 15.8575 47.0496 13.4499H55.2298C55.6784 8.94859 53.809 6.92969 49.9358 6.92969ZM47.1393 11.6254C47.4235 9.86078 48.3058 9.03824 49.9209 9.03824C51.6407 9.03824 52.4482 9.95053 52.4931 11.6254H47.1393Z" fill="var(--color-text-main)"></path><path d="M38.3168 7.6769L37.6438 8.3499H36.9709L36.7615 7.49751C36.7166 7.28806 36.5222 7.15355 36.2979 7.15355H31.991C31.7219 7.15355 31.5124 7.36289 31.5124 7.60218V9.0826C31.5124 9.33681 31.7219 9.53123 31.991 9.53123H34.5333V16.4702H31.5723C31.3031 16.4702 31.0938 16.6795 31.0938 16.9188V18.3992C31.0938 18.6535 31.3031 18.8479 31.5723 18.8479H40.889C41.1581 18.8479 41.3675 18.6385 41.3675 18.3992V16.9188C41.3675 16.6646 41.1581 16.4702 40.889 16.4702H37.4644V11.5651C37.4644 10.1893 38.2719 9.47143 39.8571 9.47143H42.4293C42.6984 9.47143 42.9078 9.26209 42.9078 9.0228V7.39273C42.9078 7.13852 42.6984 6.9441 42.4293 6.9441H40.9039C39.7823 6.92918 38.9 7.13852 38.3168 7.6769Z" fill="var(--color-text-main)"></path><path d="M0.00390625 2.11897C0.00390625 1.26046 0.699916 0.564453 1.55842 0.564453H8.81284C9.67135 0.564453 10.3674 1.26046 10.3674 2.11897V8.85521H1.55842C0.699916 8.85521 0.00390625 8.1592 0.00390625 7.3007V2.11897Z" fill="#F26207"></path><path d="M10.3652 8.85547H19.1742C20.0327 8.85547 20.7287 9.55148 20.7287 10.41V15.5917C20.7287 16.4502 20.0327 17.1462 19.1742 17.1462H10.3652V8.85547Z" fill="#F26207"></path><path d="M0.00390625 18.701C0.00390625 17.8425 0.699916 17.1465 1.55842 17.1465H10.3674V23.8827C10.3674 24.7412 9.67135 25.4372 8.81284 25.4372H1.55842C0.699916 25.4372 0.00390625 24.7412 0.00390625 23.8827V18.701Z" fill="#F26207"></path></svg>