<svg viewBox="0 0 16 16" fill="#cbd5e1" xmlns="http://www.w3.org/2000/svg" width="14" height="15"><path opacity="0.4" fill-rule="evenodd" clip-rule="evenodd" d="M8 11.8759C8 10.2187 9.3428 8.87592 11 8.87592C12.6572 8.87592 14 10.2187 14 11.8759C14 13.5331 12.6572 14.8759 11 14.8759C9.3428 14.8759 8 13.5331 8 11.8759Z" fill="currentColor"></path><path opacity="0.4" fill-rule="evenodd" clip-rule="evenodd" d="M0 3.87592C0 2.21871 1.34279 0.875916 3 0.875916C4.65721 0.875916 6 2.21871 6 3.87592C6 5.53313 4.65721 6.87592 3 6.87592C1.34279 6.87592 0 5.53313 0 3.87592Z" fill="currentColor"></path><path fill-rule="evenodd" clip-rule="evenodd" d="M8 3.87592C8 2.21871 9.3428 0.875916 11 0.875916C12.6572 0.875916 14 2.21871 14 3.87592C14 5.53313 12.6572 6.87592 11 6.87592C10.4435 6.87592 9.9225 6.72452 9.4759 6.46065L5.58473 10.3518C5.8486 10.7984 6 11.3194 6 11.8759C6 13.5331 4.65721 14.8759 3 14.8759C1.34279 14.8759 0 13.5331 0 11.8759C0 10.2187 1.34279 8.87592 3 8.87592C3.55644 8.87592 4.07744 9.02732 4.52405 9.29112L8.4152 5.39997C8.1514 4.95336 8 4.43236 8 3.87592Z" fill="currentColor"></path></svg>