<svg viewBox="0 0 16 16" fill="#cbd5e1" xmlns="http://www.w3.org/2000/svg"><path opacity="0.2" fill-rule="evenodd" clip-rule="evenodd" d="M0 2.75C0 1.23079 1.23079 0 2.75 0H11.25C12.7692 0 14 1.23079 14 2.75V11.25C14 12.7692 12.7692 14 11.25 14H2.75C1.23079 14 0 12.7692 0 11.25V2.75Z" fill="currentColor"></path><path fill-rule="evenodd" clip-rule="evenodd" d="M7 10.25C7 9.8358 7.33579 9.5 7.75 9.5H10.25C10.6642 9.5 11 9.8358 11 10.25C11 10.6642 10.6642 11 10.25 11H7.75C7.33579 11 7 10.6642 7 10.25Z" fill="currentColor"></path><path fill-rule="evenodd" clip-rule="evenodd" d="M3.21967 4.71967C3.51256 4.42678 3.98744 4.42678 4.28033 4.71967L6.78033 7.21967C7.07322 7.51256 7.07322 7.98744 6.78033 8.2803L4.28033 10.7803C3.98744 11.0732 3.51256 11.0732 3.21967 10.7803C2.92678 10.4874 2.92678 10.0126 3.21967 9.7197L5.18934 7.75L3.21967 5.78033C2.92678 5.48744 2.92678 5.01256 3.21967 4.71967Z" fill="currentColor"></path></svg>