<svg width="100%" height="100%" viewBox="0 0 160 38" fill="#cbd5e1" xmlns="http://www.w3.org/2000/svg"><path d="M51.8321 28.984C49.9351 28.984 48.2901 28.563 46.8941 27.714C45.4981 26.868 44.4291 25.688 43.6861 24.172C42.9431 22.658 42.5701 20.894 42.5701 18.887C42.5701 16.88 42.9431 15.139 43.6861 13.615C44.4291 12.091 45.4981 10.906 46.8941 10.06C48.2901 9.21404 49.9351 8.79004 51.8321 8.79004C54.0991 8.79004 55.9551 9.33804 57.3971 10.435C58.8391 11.533 59.7441 13.075 60.1171 15.065H57.0221C56.7441 13.913 56.1761 12.99 55.3201 12.304C54.4641 11.615 53.2941 11.273 51.8061 11.273C50.4851 11.273 49.3511 11.579 48.4031 12.193C47.4541 12.807 46.7191 13.681 46.2001 14.815C45.6781 15.949 45.4181 17.306 45.4181 18.887C45.4181 20.468 45.6781 21.83 46.2001 22.974C46.7191 24.118 47.4541 24.992 48.4031 25.596C49.3521 26.2 50.4851 26.503 51.8061 26.503C53.2941 26.503 54.4641 26.174 55.3201 25.513C56.1761 24.852 56.7421 23.955 57.0221 22.822H60.1171C59.7441 24.755 58.8391 26.267 57.3971 27.354C55.9551 28.441 54.1011 28.986 51.8321 28.986V28.984Z" fill="var(--color-text-main)"></path><path d="M68.517 28.9829C67.178 28.9829 65.98 28.6769 64.918 28.0629C63.859 27.4489 63.031 26.5899 62.435 25.4819C61.839 24.3769 61.543 23.0969 61.543 21.6469C61.543 20.1969 61.846 18.8629 62.45 17.7549C63.054 16.6499 63.887 15.7889 64.946 15.1739C66.005 14.5599 67.195 14.2539 68.517 14.2539C69.839 14.2539 71.047 14.5599 72.088 15.1739C73.129 15.7879 73.957 16.6439 74.571 17.7389C75.185 18.8369 75.491 20.1299 75.491 21.6159C75.491 23.1019 75.185 24.3739 74.571 25.4799C73.957 26.5849 73.124 27.4459 72.075 28.0609C71.024 28.6749 69.839 28.9809 68.52 28.9809L68.517 28.9829ZM68.489 26.5849C69.232 26.5849 69.916 26.3999 70.54 26.0269C71.162 25.6539 71.669 25.0959 72.059 24.3529C72.45 23.6099 72.645 22.6969 72.645 21.6199C72.645 20.5429 72.455 19.6069 72.074 18.8719C71.694 18.1369 71.195 17.5839 70.581 17.2109C69.967 16.8379 69.288 16.6529 68.545 16.6529C67.802 16.6529 67.113 16.8379 66.481 17.2109C65.849 17.5839 65.342 18.1359 64.962 18.8719C64.582 19.6069 64.391 20.5219 64.391 21.6199C64.391 22.7179 64.581 23.6099 64.962 24.3529C65.343 25.0959 65.841 25.6539 66.453 26.0269C67.067 26.3999 67.746 26.5849 68.489 26.5849Z" fill="var(--color-text-main)"></path><path d="M84.56 35.1208C83.668 35.1208 82.822 35.0098 82.023 34.7868C81.224 34.5628 80.494 34.2288 79.833 33.7818C79.172 33.3348 78.63 32.7718 78.201 32.0958C77.772 31.4168 77.494 30.6488 77.363 29.7948H80.152C80.319 30.3708 80.602 30.8768 81.003 31.3138C81.401 31.7508 81.91 32.0898 82.522 32.3318C83.136 32.5738 83.805 32.6938 84.53 32.6938C85.347 32.6938 86.093 32.5218 86.761 32.1768C87.429 31.8328 87.964 31.3078 88.365 30.6008C88.764 29.8938 88.964 28.9918 88.964 27.8938V25.9968C88.666 26.4978 88.285 26.9588 87.82 27.3778C87.355 27.7968 86.792 28.1308 86.134 28.3828C85.473 28.6348 84.707 28.7608 83.833 28.7608C82.532 28.7608 81.365 28.4548 80.332 27.8408C79.301 27.2268 78.481 26.3678 77.877 25.2598C77.273 24.1548 76.97 22.9028 76.97 21.5088C76.97 20.1148 77.273 18.8228 77.877 17.7428C78.481 16.6658 79.304 15.8148 80.345 15.1898C81.386 14.5678 82.558 14.2568 83.859 14.2568C84.64 14.2568 85.355 14.3728 86.005 14.6068C86.655 14.8408 87.231 15.1518 87.735 15.5398C88.236 15.9308 88.645 16.3778 88.961 16.8788L89.239 14.5908H91.751V27.8118C91.751 29.0018 91.568 30.0478 91.206 30.9508C90.844 31.8528 90.342 32.6118 89.7 33.2228C89.057 33.8368 88.302 34.3048 87.428 34.6318C86.554 34.9558 85.595 35.1198 84.554 35.1198H84.562L84.56 35.1208ZM84.339 26.3628C85.249 26.3628 86.046 26.1548 86.725 25.7358C87.404 25.3168 87.933 24.7458 88.314 24.0208C88.695 23.2958 88.885 22.4578 88.885 21.5088C88.885 20.5598 88.695 19.7018 88.314 18.9848C87.933 18.2698 87.404 17.7068 86.725 17.2988C86.046 16.8898 85.252 16.6848 84.339 16.6848C83.426 16.6848 82.684 16.8908 81.997 17.2988C81.308 17.7078 80.773 18.2708 80.393 18.9848C80.013 19.7018 79.822 20.5428 79.822 21.5088C79.822 22.4748 80.012 23.2958 80.393 24.0208C80.774 24.7458 81.308 25.3188 81.997 25.7358C82.683 26.1548 83.465 26.3628 84.339 26.3628Z" fill="var(--color-text-main)"></path><path d="M94.399 28.6508V14.5918H96.91L97.077 16.9898C97.524 16.1338 98.152 15.4658 98.959 14.9818C99.769 14.4988 100.712 14.2568 101.789 14.2568C102.923 14.2568 103.889 14.4808 104.689 14.9248C105.488 15.3698 106.108 16.0458 106.545 16.9478C106.982 17.8498 107.2 18.9788 107.2 20.3358V28.6488H104.411V20.6158C104.411 19.3148 104.123 18.3258 103.547 17.6438C102.972 16.9648 102.134 16.6258 101.036 16.6258C100.311 16.6258 99.661 16.8028 99.082 17.1558C98.506 17.5108 98.046 18.0198 97.702 18.6908C97.358 19.3588 97.185 20.1788 97.185 21.1458V28.6498H94.396L94.399 28.6508Z" fill="var(--color-text-main)"></path><path d="M111.103 11.9398C110.563 11.9398 110.121 11.7728 109.779 11.4388C109.434 11.1048 109.262 10.6748 109.262 10.1558C109.262 9.63678 109.434 9.24078 109.779 8.91378C110.123 8.58978 110.563 8.42578 111.103 8.42578C111.643 8.42578 112.059 8.58778 112.414 8.91378C112.766 9.23978 112.943 9.65378 112.943 10.1558C112.943 10.6578 112.766 11.1048 112.414 11.4388C112.059 11.7728 111.625 11.9398 111.103 11.9398ZM109.707 28.6488V14.5898H112.496V28.6488H109.707Z" fill="var(--color-text-main)"></path><path d="M120.814 28.6479C119.922 28.6479 119.151 28.5089 118.498 28.2289C117.848 27.9509 117.344 27.4859 116.992 26.8329C116.637 26.1829 116.462 25.2979 116.462 24.1829V16.9309H114.036V14.5889H116.462L116.825 11.0469H119.251V14.5889H123.213V16.9309H119.251V24.2109C119.251 25.0109 119.419 25.5559 119.753 25.8429C120.087 26.1309 120.663 26.2749 121.483 26.2749H123.1V28.6449H120.812L120.814 28.6479Z" fill="var(--color-text-main)"></path><path d="M126.318 11.9398C125.778 11.9398 125.336 11.7728 124.994 11.4388C124.649 11.1048 124.477 10.6748 124.477 10.1558C124.477 9.63678 124.649 9.24078 124.994 8.91378C125.338 8.58978 125.778 8.42578 126.318 8.42578C126.858 8.42578 127.274 8.58778 127.629 8.91378C127.981 9.23978 128.158 9.65378 128.158 10.1558C128.158 10.6578 127.981 11.1048 127.629 11.4388C127.274 11.7728 126.839 11.9398 126.318 11.9398ZM124.922 28.6488V14.5898H127.711V28.6488H124.922Z" fill="var(--color-text-main)"></path><path d="M136.81 28.9829C135.47 28.9829 134.272 28.6769 133.211 28.0629C132.152 27.4489 131.324 26.5899 130.727 25.4819C130.131 24.3769 129.835 23.0969 129.835 21.6469C129.835 20.1969 130.139 18.8629 130.743 17.7549C131.347 16.6499 132.18 15.7889 133.239 15.1739C134.298 14.5599 135.488 14.2539 136.81 14.2539C138.132 14.2539 139.339 14.5599 140.38 15.1739C141.421 15.7879 142.249 16.6439 142.863 17.7389C143.478 18.8369 143.784 20.1299 143.784 21.6159C143.784 23.1019 143.478 24.3739 142.863 25.4799C142.249 26.5849 141.416 27.4459 140.367 28.0609C139.316 28.6749 138.131 28.9809 136.812 28.9809L136.81 28.9829ZM136.781 26.5849C137.524 26.5849 138.208 26.3999 138.833 26.0269C139.455 25.6539 139.961 25.0959 140.352 24.3529C140.743 23.6099 140.938 22.6969 140.938 21.6199C140.938 20.5429 140.748 19.6069 140.367 18.8719C139.987 18.1369 139.488 17.5839 138.874 17.2109C138.259 16.8379 137.581 16.6529 136.838 16.6529C136.095 16.6529 135.406 16.8379 134.774 17.2109C134.141 17.5839 133.635 18.1359 133.254 18.8719C132.874 19.6069 132.684 20.5219 132.684 21.6199C132.684 22.7179 132.874 23.6099 133.254 24.3529C133.635 25.0959 134.134 25.6539 134.745 26.0269C135.36 26.3999 136.038 26.5849 136.781 26.5849Z" fill="var(--color-text-main)"></path><path d="M145.862 28.6508V14.5918H148.374L148.541 16.9898C148.988 16.1338 149.616 15.4658 150.423 14.9818C151.232 14.4988 152.176 14.2568 153.253 14.2568C154.387 14.2568 155.353 14.4808 156.153 14.9248C156.952 15.3698 157.572 16.0458 158.009 16.9478C158.446 17.8498 158.664 18.9788 158.664 20.3358V28.6488H155.875V20.6158C155.875 19.3148 155.587 18.3258 155.011 17.6438C154.435 16.9648 153.597 16.6258 152.5 16.6258C151.775 16.6258 151.125 16.8028 150.546 17.1558C149.97 17.5108 149.51 18.0198 149.166 18.6908C148.821 19.3588 148.649 20.1788 148.649 21.1458V28.6498H145.86L145.862 28.6508Z" fill="var(--color-text-main)"></path><path d="M21.8891 16.9976C22.6041 16.5866 23.4881 16.5866 24.2031 16.9976L26.0511 18.0646C26.1101 18.0976 26.1741 18.1236 26.2391 18.1416C26.2521 18.1466 26.2651 18.1496 26.2801 18.1516C26.3441 18.1666 26.4091 18.1746 26.4731 18.1776H26.4831C26.4911 18.1776 26.4961 18.1776 26.5041 18.1746C26.5631 18.1746 26.6221 18.1646 26.6811 18.1516C26.6911 18.1516 26.7021 18.1486 26.7121 18.1436C26.7741 18.1256 26.8351 18.0996 26.8921 18.0696C26.8971 18.0666 26.9051 18.0646 26.9101 18.0616L30.6041 15.9276C30.8691 15.7756 31.0311 15.4936 31.0311 15.1876V10.9206C31.0311 10.6146 30.8691 10.3316 30.6041 10.1806L26.9101 8.04662C26.6451 7.89462 26.3191 7.89462 26.0541 8.04662L22.3601 10.1806C22.3601 10.1806 22.3501 10.1886 22.3451 10.1906C22.2891 10.2236 22.2341 10.2656 22.1881 10.3116C22.1801 10.3196 22.1751 10.3266 22.1671 10.3346C22.1261 10.3786 22.0901 10.4276 22.0571 10.4786C22.0521 10.4866 22.0471 10.4936 22.0421 10.5046C22.0111 10.5616 21.9851 10.6206 21.9671 10.6846C21.9621 10.6976 21.9591 10.7106 21.9571 10.7256C21.9421 10.7896 21.9311 10.8566 21.9311 10.9266V13.0606C21.9311 13.8836 21.4891 14.6516 20.7741 15.0626C20.0591 15.4736 19.1751 15.4736 18.4601 15.0626L16.6121 13.9956C16.5531 13.9626 16.4891 13.9366 16.4241 13.9186C16.4111 13.9136 16.3981 13.9106 16.3831 13.9086C16.3191 13.8936 16.2541 13.8856 16.1901 13.8826H16.1621C16.1001 13.8826 16.0411 13.8926 15.9821 13.9056C15.9721 13.9056 15.9611 13.9086 15.9541 13.9106C15.8901 13.9286 15.8311 13.9546 15.7711 13.9856C15.7661 13.9886 15.7581 13.9906 15.7531 13.9936L12.0591 16.1276C11.7941 16.2796 11.6321 16.5616 11.6321 16.8676V21.1346C11.6321 21.4406 11.7941 21.7236 12.0591 21.8746L15.7531 24.0086C15.7531 24.0086 15.7661 24.0136 15.7711 24.0166C15.8301 24.0476 15.8891 24.0736 15.9541 24.0916C15.9641 24.0946 15.9751 24.0966 15.9851 24.0996C16.0441 24.1126 16.1031 24.1206 16.1621 24.1226C16.1701 24.1226 16.1751 24.1256 16.1831 24.1256H16.1931C16.2571 24.1256 16.3221 24.1156 16.3861 24.0996C16.3991 24.0966 16.4121 24.0916 16.4271 24.0896C16.4911 24.0716 16.5531 24.0456 16.6151 24.0126L18.4631 22.9456C19.1781 22.5346 20.0621 22.5346 20.7761 22.9456C21.4881 23.3566 21.9331 24.1256 21.9331 24.9486V27.0826C21.9331 27.1516 21.9431 27.2186 21.9591 27.2826C21.9621 27.2956 21.9641 27.3106 21.9691 27.3236C21.9871 27.3856 22.0131 27.4466 22.0431 27.5036C22.0481 27.5116 22.0531 27.5186 22.0591 27.5296C22.0901 27.5806 22.1261 27.6296 22.1701 27.6736C22.1781 27.6816 22.1831 27.6886 22.1911 27.6966C22.2371 27.7426 22.2911 27.7816 22.3481 27.8176C22.3531 27.8206 22.3581 27.8256 22.3631 27.8276L26.0571 29.9616C26.1881 30.0386 26.3371 30.0776 26.4841 30.0776C26.6311 30.0776 26.7801 30.0386 26.9111 29.9616L30.6051 27.8276C30.8701 27.6756 31.0321 27.3936 31.0321 27.0876V22.8206C31.0321 22.5146 30.8701 22.2316 30.6051 22.0806L26.9111 19.9466C26.9111 19.9466 26.8981 19.9416 26.8931 19.9386C26.8341 19.9076 26.7751 19.8816 26.7111 19.8636C26.7011 19.8616 26.6931 19.8616 26.6831 19.8586C26.6241 19.8436 26.5621 19.8356 26.5031 19.8356H26.4751C26.4111 19.8356 26.3471 19.8456 26.2821 19.8616C26.2691 19.8646 26.2561 19.8696 26.2441 19.8716C26.1801 19.8896 26.1181 19.9156 26.0561 19.9486L24.2081 21.0156C23.4961 21.4266 22.6091 21.4266 21.8951 21.0156C21.1831 20.6046 20.7381 19.8356 20.7381 19.0126C20.7381 18.1896 21.1801 17.4216 21.8951 17.0096L21.8921 16.9996L21.8891 16.9976Z" fill="var(--color-text-main)"></path><path d="M1.76291 15.9324L5.45691 18.0664C5.58791 18.1434 5.73691 18.1824 5.88391 18.1824C6.03091 18.1824 6.17991 18.1434 6.31091 18.0664L10.0049 15.9324C10.0049 15.9324 10.0149 15.9244 10.0199 15.9224C10.0769 15.8894 10.1299 15.8474 10.1769 15.8014C10.1849 15.7934 10.1899 15.7864 10.1979 15.7784C10.2389 15.7344 10.2749 15.6854 10.3089 15.6344C10.3139 15.6264 10.3189 15.6194 10.3239 15.6084C10.3549 15.5514 10.3809 15.4924 10.3989 15.4284C10.4039 15.4154 10.4069 15.4024 10.4089 15.3874C10.4239 15.3234 10.4349 15.2564 10.4349 15.1874V13.0534C10.4349 12.2304 10.8769 11.4624 11.5919 11.0514C12.3069 10.6404 13.1909 10.6404 13.9059 11.0514L15.7539 12.1184C15.8129 12.1514 15.8769 12.1774 15.9419 12.1954C15.9549 12.2004 15.9679 12.2034 15.9829 12.2054C16.0469 12.2204 16.1089 12.2284 16.1759 12.2314H16.1859C16.1939 12.2314 16.1989 12.2284 16.2069 12.2284C16.2659 12.2284 16.3249 12.2184 16.3839 12.2054C16.3939 12.2054 16.4049 12.2024 16.4149 12.1974C16.4789 12.1794 16.5379 12.1534 16.5979 12.1224C16.6029 12.1204 16.6109 12.1174 16.6159 12.1144L20.3099 9.98035C20.5749 9.82835 20.7369 9.54635 20.7369 9.24035V4.97335C20.7369 4.66735 20.5749 4.38435 20.3099 4.23335L16.6159 2.09935C16.3509 1.94735 16.0249 1.94735 15.7599 2.09935L12.0659 4.23335C12.0659 4.23335 12.0559 4.24135 12.0509 4.24335C11.9949 4.27635 11.9409 4.31835 11.8939 4.36435C11.8859 4.37235 11.8809 4.37935 11.8729 4.38735C11.8319 4.43135 11.7959 4.48035 11.7619 4.53135C11.7569 4.53935 11.7519 4.54635 11.7469 4.55735C11.7159 4.61435 11.6899 4.67335 11.6719 4.73735C11.6669 4.75035 11.6639 4.76335 11.6619 4.77835C11.6459 4.84235 11.6359 4.90935 11.6359 4.97935V7.11335C11.6359 7.93635 11.1939 8.70435 10.4789 9.11635C9.76691 9.52735 8.87991 9.52735 8.16491 9.11635L6.31691 8.04935C6.25791 8.01635 6.19391 7.99035 6.12891 7.97235C6.11591 7.96735 6.10291 7.96435 6.08791 7.96235C6.02391 7.94735 5.95891 7.93935 5.89491 7.93635H5.86691C5.80491 7.93635 5.74591 7.94635 5.68691 7.95935C5.67691 7.95935 5.66591 7.96235 5.65891 7.96435C5.59491 7.98235 5.53591 8.00835 5.47591 8.03935C5.47091 8.04235 5.46291 8.04435 5.45791 8.04735L1.76391 10.1814C1.49891 10.3334 1.33691 10.6154 1.33691 10.9214V15.1884C1.33691 15.4944 1.49891 15.7774 1.76391 15.9284V15.9334L1.76291 15.9324Z" fill="var(--color-text-main)"></path><path d="M20.305 28.0144L16.611 25.8804C16.611 25.8804 16.598 25.8754 16.593 25.8724C16.534 25.8414 16.475 25.8164 16.41 25.7984C16.4 25.7954 16.389 25.7934 16.379 25.7904C16.32 25.7774 16.261 25.7674 16.199 25.7674H16.171C16.107 25.7674 16.042 25.7774 15.978 25.7934C15.965 25.7964 15.952 25.8014 15.939 25.8034C15.875 25.8214 15.813 25.8474 15.751 25.8804L13.903 26.9474C13.191 27.3584 12.304 27.3584 11.592 26.9474C10.877 26.5364 10.435 25.7674 10.435 24.9444V22.8104C10.435 22.7414 10.425 22.6744 10.409 22.6094C10.407 22.5964 10.404 22.5814 10.399 22.5684C10.381 22.5064 10.355 22.4454 10.324 22.3884C10.319 22.3804 10.314 22.3734 10.309 22.3624C10.278 22.3114 10.242 22.2624 10.198 22.2184C10.19 22.2104 10.185 22.2034 10.178 22.1954C10.132 22.1494 10.078 22.1104 10.021 22.0744C10.016 22.0714 10.011 22.0664 10.006 22.0644L6.31196 19.9304C6.04696 19.7784 5.72096 19.7784 5.45596 19.9304L1.76196 22.0644C1.49696 22.2164 1.33496 22.4984 1.33496 22.8044V27.0714C1.33496 27.3774 1.49696 27.6604 1.76196 27.8114L5.45596 29.9454C5.45596 29.9454 5.46896 29.9504 5.47396 29.9534C5.53296 29.9844 5.59196 30.0094 5.65396 30.0274C5.66396 30.0304 5.67496 30.0324 5.68496 30.0354C5.74396 30.0484 5.80096 30.0564 5.86196 30.0584C5.86996 30.0584 5.87696 30.0604 5.88296 30.0604H5.89296C5.95696 30.0604 6.02196 30.0504 6.08296 30.0344C6.09596 30.0314 6.11096 30.0264 6.12396 30.0244C6.18796 30.0064 6.24996 29.9804 6.31196 29.9474L8.15996 28.8804C8.87496 28.4694 9.75896 28.4694 10.474 28.8804C11.186 29.2914 11.631 30.0604 11.631 30.8834V33.0174C11.631 33.0864 11.641 33.1534 11.657 33.2184C11.66 33.2314 11.662 33.2464 11.667 33.2594C11.685 33.3214 11.711 33.3824 11.742 33.4394C11.747 33.4474 11.752 33.4544 11.757 33.4654C11.788 33.5164 11.824 33.5654 11.868 33.6094C11.876 33.6174 11.881 33.6244 11.888 33.6324C11.934 33.6784 11.988 33.7174 12.045 33.7534C12.05 33.7564 12.055 33.7614 12.061 33.7634L15.755 35.8974C15.886 35.9744 16.035 36.0134 16.182 36.0134C16.329 36.0134 16.478 35.9744 16.609 35.8974L20.303 33.7634C20.568 33.6114 20.73 33.3294 20.73 33.0234V28.7564C20.73 28.4504 20.568 28.1674 20.303 28.0164L20.305 28.0144Z" fill="var(--color-text-main)"></path></svg>