<svg xmlns="http://www.w3.org/2000/svg" width="100%" height="100%" viewBox="0 0 81 16" fill="#cbd5e1"><path d="M19.1002 15.9888L9.91339 0.0117188L0.726562 15.9888H19.1002ZM28.3661 15.2615L36.0437 0.737955H32.7229L27.4267 11.2854L22.1306 0.737955H18.8097L26.4873 15.2615H28.3661ZM80.6883 0.737955V15.2615H77.939V0.737955H80.6883ZM65.3847 9.84071C65.3847 8.70885 65.621 7.71332 66.0935 6.85419C66.5661 5.99505 67.2248 5.33363 68.0698 4.86999C68.9144 4.40631 69.9025 4.17449 71.0338 4.17449C72.0361 4.17449 72.9382 4.39267 73.7401 4.82906C74.5417 5.26545 75.1789 5.91323 75.6515 6.77237C76.1241 7.6315 76.3674 8.68157 76.3818 9.92256V10.5567H68.2845C68.3417 11.4567 68.6065 12.1659 69.0791 12.6841C69.5661 13.1886 70.2174 13.4409 71.0338 13.4409C71.5491 13.4409 72.0216 13.3046 72.4512 13.0318C72.8807 12.7591 73.203 12.3909 73.4178 11.9272L76.2316 12.1318C75.8878 13.1545 75.2435 13.9728 74.2984 14.5865C73.3533 15.2001 72.265 15.507 71.0338 15.507C69.9025 15.507 68.9144 15.2751 68.0698 14.8115C67.2248 14.3478 66.5661 13.6864 66.0935 12.8273C65.621 11.9681 65.3847 10.9726 65.3847 9.84071ZM73.5465 8.81793C73.4464 7.9315 73.1671 7.28376 72.709 6.87465C72.2508 6.4519 71.6923 6.24051 71.0338 6.24051C70.2749 6.24051 69.6592 6.46551 69.1866 6.91555C68.7141 7.36558 68.4203 7.99971 68.306 8.81793H73.5465ZM60.7467 6.87465C61.2048 7.24283 61.4912 7.75425 61.6058 8.40882L64.4411 8.26564C64.3406 7.43376 64.0472 6.71101 63.5605 6.09733C63.0735 5.48366 62.4434 5.01316 61.6703 4.68588C60.9114 4.34495 60.0738 4.17449 59.1573 4.17449C58.026 4.17449 57.0382 4.40631 56.1932 4.86999C55.3483 5.33363 54.6899 5.99505 54.2173 6.85419C53.7447 7.71332 53.5085 8.70885 53.5085 9.84071C53.5085 10.9726 53.7447 11.9681 54.2173 12.8273C54.6899 13.6864 55.3483 14.3478 56.1932 14.8115C57.0382 15.2751 58.026 15.507 59.1573 15.507C60.1024 15.507 60.9615 15.3365 61.7348 14.9956C62.5079 14.641 63.1381 14.1432 63.6247 13.5023C64.1117 12.8614 64.4052 12.1113 64.5053 11.2522L61.6488 11.1294C61.5486 11.8522 61.2694 12.4113 60.8112 12.8068C60.3528 13.1886 59.8016 13.3796 59.1573 13.3796C58.2696 13.3796 57.5823 13.0727 57.0953 12.459C56.6086 11.8454 56.365 10.9726 56.365 9.84071C56.365 8.70885 56.6086 7.83607 57.0953 7.2224C57.5823 6.60872 58.2696 6.30187 59.1573 6.30187C59.773 6.30187 60.3027 6.4928 60.7467 6.87465ZM46.7999 4.41946H49.3581L49.4322 6.50607C49.6138 5.91544 49.8663 5.45678 50.1898 5.13007C50.6587 4.65632 51.3125 4.41946 52.151 4.41946H53.1957V6.65284H52.1298C51.5328 6.65284 51.0425 6.73405 50.6587 6.89646C50.2891 7.05891 50.0049 7.31608 49.8061 7.66801C49.6211 8.01993 49.5289 8.46661 49.5289 9.00802V15.2615H46.7999V4.41946ZM34.9993 6.85419C34.5268 7.71332 34.2905 8.70885 34.2905 9.84071C34.2905 10.9726 34.5268 11.9681 34.9993 12.8273C35.4719 13.6864 36.1303 14.3478 36.9752 14.8115C37.8202 15.2751 38.808 15.507 39.9393 15.507C41.1708 15.507 42.2591 15.2001 43.2042 14.5865C44.149 13.9728 44.7936 13.1545 45.1371 12.1318L42.3233 11.9272C42.1085 12.3909 41.7865 12.7591 41.357 13.0318C40.9274 13.3046 40.4549 13.4409 39.9393 13.4409C39.1232 13.4409 38.4716 13.1886 37.9849 12.6841C37.5123 12.1659 37.2475 11.4567 37.19 10.5567H45.2873V9.92256C45.2732 8.68157 45.0299 7.6315 44.5573 6.77237C44.0848 5.91323 43.4475 5.26545 42.6456 4.82906C41.8437 4.39267 40.9416 4.17449 39.9393 4.17449C38.808 4.17449 37.8202 4.40631 36.9752 4.86999C36.1303 5.33363 35.4719 5.99505 34.9993 6.85419ZM41.6147 6.87465C42.0729 7.28376 42.3522 7.9315 42.4523 8.81793H37.2115C37.3261 7.99971 37.6196 7.36558 38.0921 6.91555C38.5647 6.46551 39.1804 6.24051 39.9393 6.24051C40.5981 6.24051 41.1563 6.4519 41.6147 6.87465Z" fill="var(--color-background-invert)"></path></svg>