<svg viewBox="0 0 16 14" fill="#cbd5e1" xmlns="http://www.w3.org/2000/svg"><path d="M15.146 0.981008C14.398 0.540008 13.181 0.0140076 11.626 0.0140076H11.624C10.022 0.0140076 8.773 0.571008 8 1.04401C7.227 0.571008 5.978 0.0140076 4.377 0.0140076H4.375C2.82 0.0140076 1.603 0.540008 0.855 0.981008C0.319 1.29601 0 1.85801 0 2.48201V11.573C0 12.154 0.287 12.696 0.766 13.023C1.239 13.345 1.837 13.413 2.369 13.204C3.012 12.951 3.683 12.822 4.366 12.821H4.374C5.586 12.821 6.542 13.225 7.131 13.565C7.169 13.587 7.211 13.596 7.25 13.615V3.94601C7.25 3.53201 7.586 3.19601 8 3.19601C8.414 3.19601 8.75 3.53201 8.75 3.94601V13.615C8.789 13.596 8.831 13.587 8.869 13.565C9.458 13.226 10.413 12.821 11.626 12.821H11.633C12.316 12.821 12.987 12.951 13.631 13.204C14.16 13.412 14.758 13.344 15.232 13.022C15.713 12.694 16 12.151 16 11.569V2.48701C16 1.86901 15.672 1.29201 15.146 0.981008Z" fill="currentColor"></path></svg>