<svg viewBox="0 0 16 16" fill="#cbd5e1" xmlns="http://www.w3.org/2000/svg"><path d="M9.75 0.5H3.25C1.73122 0.5 0.5 1.73122 0.5 3.25V9.75C0.5 11.2688 1.73122 12.5 3.25 12.5H9.75C11.2688 12.5 12.5 11.2688 12.5 9.75V3.25C12.5 1.73122 11.2688 0.5 9.75 0.5Z" fill="currentColor"></path><path d="M15.9697 11.8154L14.9922 5.23482C14.9307 4.82462 14.541 4.537 14.1397 4.6035C13.7305 4.664 13.4473 5.04591 13.5079 5.45561L14.4854 12.0357C14.5352 12.3668 14.4522 12.6963 14.253 12.9644C14.0548 13.2325 13.7637 13.4073 13.4337 13.4561L6.50993 14.4854C6.00113 14.5611 5.50602 14.3213 5.24722 13.8736C5.04112 13.5162 4.58022 13.3946 4.22282 13.6011C3.86442 13.8091 3.74233 14.2681 3.95033 14.6265C4.45033 15.4883 5.35073 15.9995 6.32043 15.9995C6.45613 15.9995 6.59293 15.9892 6.73063 15.9687L13.6535 14.9394C14.3801 14.832 15.0217 14.4477 15.4592 13.8579C15.8957 13.2676 16.0772 12.5425 15.9697 11.8154Z" fill="currentColor"></path></svg>